inDegrees=no
num_controls=7
num_derivatives=13
num_iterations=97
num_multipliers=7
num_parameters=0
num_slacks=7
num_states=26
objective=0.445692
objective_accelerations=0.057055
objective_balance=0.003440
objective_effort=0.022694
objective_height=0.356959
objective_ligament=0.005543
solver_duration=1379.914516
status=Solve_Succeeded
success=true
DataType=double
version=3
OpenSimVersion=4.5
endheader
time	/jointset/ground_pelvis/pelvis_tilt/value	/jointset/ground_pelvis/pelvis_tx/value	/jointset/ground_pelvis/pelvis_ty/value	/jointset/hip_l/hip_flexion_l/value	/jointset/hip_l/hip_adduction_l/value	/jointset/hip_l/hip_rotation_l/value	/jointset/back/lumbar_extension/value	/jointset/patellofemoral_l/patellar_flexion_l/value	/jointset/knee_l/knee_flexion_l/value	/jointset/knee_l/knee_adduction_l/value	/jointset/knee_l/knee_rotation_l/value	/jointset/ankle_l/ankle_angle_l/value	/jointset/subtalar_l/subtalar_angle_l/value	/jointset/ground_pelvis/pelvis_tilt/speed	/jointset/ground_pelvis/pelvis_tx/speed	/jointset/ground_pelvis/pelvis_ty/speed	/jointset/hip_l/hip_flexion_l/speed	/jointset/hip_l/hip_adduction_l/speed	/jointset/hip_l/hip_rotation_l/speed	/jointset/back/lumbar_extension/speed	/jointset/patellofemoral_l/patellar_flexion_l/speed	/jointset/knee_l/knee_flexion_l/speed	/jointset/knee_l/knee_adduction_l/speed	/jointset/knee_l/knee_rotation_l/speed	/jointset/ankle_l/ankle_angle_l/speed	/jointset/subtalar_l/subtalar_angle_l/speed	/forceset/tau_hip_flexion_l	/forceset/tau_hip_adduction_l	/forceset/tau_hip_rotation_l	/forceset/tau_knee_flexion_l	/forceset/tau_ankle_angle_l	/forceset/tau_subtalar_angle_l	/forceset/tau_lumbar_extension	lambda_cid13_p0	lambda_cid13_p1	lambda_cid13_p2	lambda_cid13_p3	lambda_cid13_p4	lambda_cid13_p5	lambda_cid14_p0	/jointset/ground_pelvis/pelvis_tilt/accel	/jointset/ground_pelvis/pelvis_tx/accel	/jointset/ground_pelvis/pelvis_ty/accel	/jointset/hip_l/hip_flexion_l/accel	/jointset/hip_l/hip_adduction_l/accel	/jointset/hip_l/hip_rotation_l/accel	/jointset/back/lumbar_extension/accel	/jointset/patellofemoral_l/patellar_flexion_l/accel	/jointset/knee_l/knee_flexion_l/accel	/jointset/knee_l/knee_adduction_l/accel	/jointset/knee_l/knee_rotation_l/accel	/jointset/ankle_l/ankle_angle_l/accel	/jointset/subtalar_l/subtalar_angle_l/accel	gamma_cid13_p0	gamma_cid13_p1	gamma_cid13_p2	gamma_cid13_p3	gamma_cid13_p4	gamma_cid13_p5	gamma_cid14_p0
0.5	-0.3355907561364661	-0.03605187278484107	0.7612138222183804	1.09038948383033	-0.4370947499326098	-0.2225290305112223	-0.2541529186062471	0.8065024860471821	0.8065024860471155	-0.1287980389518289	-0.1584555135848243	0.111288920025156	-0.03100706134952186	-0.7574005549848161	-0.2117444294161646	-0.5269838290077631	2.452845395013114	-0.20654533459629	0.7449374731191166	-0.1165765846819021	1.986406189558459	1.986406189558498	0.1282122522712416	-0.08857206714924035	0.4626948805089607	0.0004033626066016584	-0.1678441908557228	0.02186485240767255	-0.01105696911903879	-0.2175399758183559	0.06299421845243879	0.04316598136500693	0.1664078848205873	-12.52379337478454	-19.69572729294438	6.39254555627083	-5.604510836575442	-522.2040921555775	-62.37259011244246	-25.17220459374809	0.7814566842647859	0.5802206098914369	-0.4638698751220856	-1.311606298022391	0.738179132128631	-0.2102239086867401	1.065359626673465	-1.253012533044293	-1.253012533044294	0.09506336296241946	0.1725926406722931	-0.5196219331250483	0.5363235966862852	-5.435307792352621e-07	-4.283314372982715e-07	2.726587400943902e-06	1.425101221171634e-07	-6.232234114026735e-07	-3.981463205452553e-09	-4.441454379148179e-07
0.51	-0.3431238592016749	-0.03814004774280649	0.7559219579818159	1.114847540100636	-0.4391244045861579	-0.2150889831192622	-0.2552665645991988	0.8263007227077195	0.8263007227076492	-0.127515443406125	-0.1593320671219738	0.1158886411606377	-0.03097811665891411	-0.7491110285896441	-0.2058721609898929	-0.5312748826186857	2.438425030975234	-0.1993702467495121	0.7429769547710166	-0.1061916025014332	1.972967864795233	1.972967864795276	0.1282936258121653	-0.08672504763531007	0.4571708622983516	0.005371148474285846	-0.1732295321824931	0.0225991766943653	-0.01115124688358759	-0.2203285060503437	0.06248672389542358	0.04351199016325312	0.1705281429041731	-12.88511491518029	-19.76140080575438	6.378647064127776	-5.520491937579812	-525.7911831223527	-62.016685404767	-24.2584873775899	0.8689890007154086	0.5935201903937908	-0.3947245708879026	-1.558453422653366	0.7091678593678885	-0.2036073134826444	1.019219224800794	-1.430146217360808	-1.43014621736009	-0.03726892858548198	0.1933436148795143	-0.5805595967955666	0.4745852460577965	-5.280693342936335e-07	-3.451122356460738e-07	2.741813824655074e-06	1.590430840208218e-07	-5.980940987515084e-07	6.783277685835046e-08	-4.360851586388013e-07
0.52	-0.350570809326218	-0.04016894197022947	0.7505905829157801	1.139151152337369	-0.4410819095115546	-0.2076714692139051	-0.2562775304281318	0.8459563953667459	0.845956395366669	-0.1262324227806645	-0.1601896330623541	0.12043076854766	-0.03089997827677985	-0.7401699668515898	-0.199888283307677	-0.5348859949020278	2.421956588298048	-0.1921153889661146	0.7404307757984769	-0.09604055187827464	1.957893389256045	1.957893389256093	0.1282972682233763	-0.08477454779633523	0.451176130817073	0.01024210091190256	-0.178614873509241	0.02333350098106185	-0.01124552464817983	-0.2231170362823278	0.06197922933840783	0.0438579989615041	0.1746484009877798	-13.2497479095907	-19.82718988723176	6.365563005918243	-5.46918646520852	-529.4565742517375	-61.71937721627678	-23.34596683355477	0.9117637528413084	0.6025424610802546	-0.327881609605962	-1.721222025883834	0.7541331194525251	-0.3273560335746407	1.018573315211428	-1.580242688236665	-1.580242688236664	0.07951713701986597	0.1932887056812097	-0.6137645872589654	0.5169569106727882	-5.136563340260384e-07	-2.659460902345441e-07	2.765081350697012e-06	1.767746157420605e-07	-5.758599729367568e-07	1.400474427055113e-07	-4.292496597365589e-07
0.53	-0.3579252411250869	-0.04213749963427525	0.7452265127489512	1.163280161430356	-0.4429664656309646	-0.2002821442356294	-0.2571881450607323	0.8654534065638321	0.865453406563665	-0.1249497190046451	-0.1610271219352881	0.1249107461677651	-0.03077354017755286	-0.7306111500171455	-0.1938100779579398	-0.537810887279743	2.403514345959755	-0.1847866274232216	0.7373302029398742	-0.08613202118049419	1.941253877654075	1.941253877654029	0.128239149888341	-0.08271874004330462	0.4447519696235778	0.01503019750925109	-0.1839306131465467	0.02388940443970439	-0.01128252693061636	-0.2259226163689356	0.06146460862202643	0.04407436766856188	0.1786793286600105	-13.61929804744745	-19.83100255500394	6.337099121572465	-5.346324187289338	-533.0981054967897	-61.34676148256933	-22.43617477660581	0.9936603360853353	0.6124725210558599	-0.2573332105487194	-1.955436024724448	0.7232940288023039	-0.3173770977312709	0.9695459662819961	-1.743966140363721	-1.743966140377805	-0.04907052704096011	0.2129574270266761	-0.6668407843537069	0.4571494724093456	-4.97057207242236e-07	-1.712110747371981e-07	2.790475012667276e-06	2.00643565342808e-07	-5.557590371772477e-07	2.131604868698861e-07	-4.192307732265349e-07
0.54	-0.3651809408181437	-0.0440448726549966	0.7398366856266064	1.187214805962576	-0.4447775248635266	-0.1929270188230869	-0.2580011637825106	0.8847763904960603	0.8847763904958031	-0.1236677152536304	-0.1618438066073106	0.1293244623961431	-0.03059973842472368	-0.720423545689124	-0.1876513546427896	-0.5400373860052335	2.383083676144565	-0.1774160115965428	0.7335908626521441	-0.07652136971388637	1.923087936284643	1.923087936284503	0.1281572632222756	-0.08061370761376621	0.4379238524717264	0.01971483163233787	-0.1892463527838489	0.02444530789834231	-0.01131952921302609	-0.2287281964555461	0.06094998790564251	0.04429073637561246	0.1827102563322471	-13.99269187314451	-19.83473877832493	6.30930625309503	-5.253575512973378	-536.8251426425486	-61.03300948882101	-21.53179668507109	1.037521251556792	0.6186460541628372	-0.1882028791610303	-2.118907521263429	0.762503976209704	-0.4551095194000866	0.9589974689769172	-1.885528641729096	-1.885528641729105	0.07476347081383598	0.2031336409827724	-0.6945557789301913	0.4962644158204368	-4.780393872915662e-07	-5.925092637894859e-08	2.818220995239091e-06	2.313028496187568e-07	-5.380182265852408e-07	2.872674815128805e-07	-4.05689840852582e-07
